<svg width="32" height="32" viewBox="0 0 32 32" fill="none" xmlns="http://www.w3.org/2000/svg">
<path d="M16 6.66663V2.66663L10.6667 7.99996L16 13.3333V9.33329C20.4133 9.33329 24 12.92 24 17.3333C24 21.2933 21.1067 24.5733 17.3333 25.2133V27.9066C22.6 27.2533 26.6667 22.7733 26.6667 17.3333C26.6667 11.44 21.8933 6.66663 16 6.66663ZM8 17.3333C8 15.1333 8.89333 13.1333 10.3467 11.68L8.45333 9.78663C7.4631 10.778 6.67788 11.9547 6.14254 13.2496C5.6072 14.5444 5.33223 15.9321 5.33333 17.3333C5.33333 22.7733 9.4 27.2533 14.6667 27.9066V25.2133C10.8933 24.5733 8 21.2933 8 17.3333Z" fill="white"/>
</svg>
