<svg width="29" height="30" viewBox="0 0 29 30" fill="none" xmlns="http://www.w3.org/2000/svg">
<path d="M12.057 8.8026L12.057 8.80261L12.9069 12.5399C13.3168 14.3425 14.7244 15.7501 16.527 16.16L20.2643 17.0098L20.308 16.8175L20.2643 17.0098C20.8737 17.1484 21.3061 17.6902 21.3061 18.3152C21.3061 18.9401 20.8737 19.482 20.2643 19.6205L20.308 19.8129L20.2643 19.6205L16.527 20.4704C14.7244 20.8802 13.3168 22.2878 12.9069 24.0905L12.057 27.8278L12.2494 27.8715L12.057 27.8278C11.9185 28.4371 11.3767 28.8696 10.7517 28.8696C10.1267 28.8696 9.58491 28.4371 9.44636 27.8278L9.25399 27.8715L9.44636 27.8278L8.59651 24.0905C8.18663 22.2878 6.77904 20.8802 4.97639 20.4704L1.2391 19.6205C0.629744 19.482 0.197279 18.9401 0.197279 18.3152C0.197279 17.6902 0.629744 17.1484 1.2391 17.0098L4.97639 16.16C6.77904 15.7501 8.18663 14.3425 8.59651 12.5399L9.44636 8.80261L9.44636 8.8026C9.58491 8.1932 10.1267 7.76076 10.7517 7.76076C11.3767 7.76076 11.9185 8.1932 12.057 8.8026Z" fill="#CA0E18" stroke="white" stroke-width="0.394558"/>
<path d="M22.188 0.888791L22.188 0.888798L22.7415 3.32318C23.0144 4.52316 23.9514 5.46018 25.1514 5.73303L27.5858 6.2866L27.6295 6.09423L27.5858 6.2866C27.9514 6.36973 28.2109 6.69483 28.2109 7.06981C28.2109 7.44479 27.9514 7.76988 27.5858 7.85301L27.6295 8.04538L27.5858 7.85301L25.1514 8.40658C23.9514 8.67943 23.0144 9.61645 22.7415 10.8165L22.188 13.2508L22.3803 13.2946L22.188 13.2508C22.1048 13.6164 21.7797 13.8759 21.4048 13.8759C21.0298 13.8759 20.7047 13.6164 20.6216 13.2508L20.4292 13.2946L20.6216 13.2508L20.068 10.8165C19.7951 9.61645 18.8581 8.67943 17.6581 8.40658L15.2237 7.85301L15.2237 7.85301C14.8581 7.76988 14.5986 7.44479 14.5986 7.06981C14.5986 6.69483 14.8581 6.36973 15.2237 6.2866L15.2237 6.2866L17.6581 5.73303C18.8581 5.46018 19.7951 4.52316 20.068 3.32318L20.6216 0.888798L20.6216 0.888791C20.7047 0.523152 21.0298 0.263685 21.4048 0.263685C21.7797 0.263685 22.1048 0.523152 22.188 0.888791Z" fill="#CA0E18" stroke="white" stroke-width="0.394558"/>
<path d="M25.8439 15.8486C26.015 15.8486 26.1633 15.967 26.2012 16.1338L26.4039 17.0252C26.4976 17.4376 26.8196 17.7595 27.232 17.8533L28.1234 18.056C28.2902 18.0939 28.4085 18.2422 28.4085 18.4133C28.4085 18.5843 28.2902 18.7326 28.1234 18.7705L27.232 18.9732C26.8196 19.067 26.4976 19.389 26.4039 19.8013L26.2012 20.6928C26.1633 20.8595 26.015 20.9779 25.8439 20.9779C25.6729 20.9779 25.5246 20.8595 25.4867 20.6928L25.284 19.8013C25.1902 19.389 24.8682 19.067 24.4559 18.9732L23.5644 18.7705C23.3977 18.7326 23.2793 18.5843 23.2793 18.4133C23.2793 18.2422 23.3977 18.0939 23.5644 18.056L24.4559 17.8533C24.8682 17.7595 25.1902 17.4376 25.284 17.0252L25.4867 16.1338C25.5246 15.967 25.6729 15.8486 25.8439 15.8486Z" fill="white"/>
</svg>
