<svg width="172" height="86" viewBox="0 0 172 86" fill="none" xmlns="http://www.w3.org/2000/svg">
<path d="M87.2563 16.7428L87.2563 16.7429L88.8792 23.8796C89.6854 27.425 92.4538 30.1935 95.9993 30.9996L103.136 32.6225C104.175 32.8586 104.912 33.7821 104.912 34.8473C104.912 35.9124 104.175 36.8359 103.136 37.072L95.9993 38.6949C92.4538 39.501 89.6854 42.2695 88.8792 45.8149L87.2563 52.9517C87.0202 53.9903 86.0967 54.7273 85.0316 54.7273C83.9664 54.7273 83.043 53.9903 82.8068 52.9517L81.184 45.8149C80.3778 42.2695 77.6094 39.501 74.0639 38.6949L66.9271 37.072C65.8886 36.8359 65.1515 35.9124 65.1515 34.8473C65.1515 33.7821 65.8886 32.8586 66.9271 32.6225L74.0639 30.9996C77.6094 30.1935 80.3778 27.425 81.184 23.8796L82.8068 16.7429L82.8068 16.7428C83.043 15.7042 83.9664 14.9672 85.0316 14.9672C86.0967 14.9672 87.0202 15.7042 87.2563 16.7428Z" fill="#CA0E18" stroke="white" stroke-width="1.30303"/>
<path d="M106.602 1.63136L106.602 1.63138L107.66 6.2801C107.66 6.2801 107.66 6.28011 107.66 6.28011C108.204 8.6747 110.074 10.5445 112.468 11.089L117.117 12.1461L117.117 12.1461C117.69 12.2764 118.097 12.786 118.097 13.3738C118.097 13.9616 117.69 14.4712 117.117 14.6015L117.262 15.2368L117.117 14.6015L112.468 15.6586C110.074 16.203 108.204 18.0729 107.66 20.4675L106.602 25.1162L107.238 25.2607L106.602 25.1162C106.472 25.6893 105.963 26.0961 105.375 26.0961C104.787 26.0961 104.277 25.6893 104.147 25.1162L104.147 25.1162L103.09 20.4675C102.546 18.0729 100.676 16.203 98.281 15.6586C98.281 15.6586 98.281 15.6586 98.281 15.6586L93.6323 14.6015L93.6323 14.6015C93.0592 14.4712 92.6525 13.9616 92.6525 13.3738C92.6525 12.786 93.0592 12.2764 93.6323 12.1461L93.6323 12.1461L98.281 11.089C98.281 11.089 98.281 11.089 98.281 11.089C100.676 10.5445 102.546 8.67469 103.09 6.28011C103.09 6.28011 103.09 6.2801 103.09 6.2801L104.147 1.63138L104.147 1.63136C104.277 1.05823 104.787 0.651515 105.375 0.651515C105.963 0.651515 106.472 1.05823 106.602 1.63136Z" fill="#CA0E18" stroke="white" stroke-width="1.30303"/>
<path d="M113.851 30.1382C114.178 30.1382 114.461 30.3642 114.533 30.6827L114.92 32.385C115.099 33.1724 115.714 33.7873 116.502 33.9663L118.204 34.3534C118.522 34.4258 118.748 34.709 118.748 35.0356C118.748 35.3623 118.522 35.6454 118.204 35.7178L116.502 36.1049C115.714 36.284 115.099 36.8988 114.92 37.6862L114.533 39.3886C114.461 39.7071 114.178 39.9331 113.851 39.9331C113.524 39.9331 113.241 39.7071 113.169 39.3886L112.782 37.6862C112.603 36.8988 111.988 36.284 111.2 36.1049L109.498 35.7178C109.18 35.6454 108.954 35.3623 108.954 35.0356C108.954 34.709 109.18 34.4258 109.498 34.3534L111.2 33.9663C111.988 33.7873 112.603 33.1724 112.782 32.385L113.169 30.6827C113.241 30.3642 113.524 30.1382 113.851 30.1382Z" fill="white"/>
<path d="M5.86364 60.5908L86 80.7878V85.9999H77.5303L74.9242 82.7423L0 63.1969L5.86364 60.5908Z" fill="#CA0E18"/>
<path d="M166.136 60.5908L86 80.7878V85.9999H94.4697L97.0758 82.7423L172 63.1969L166.136 60.5908Z" fill="#CA0E18"/>
<path d="M85.9998 80.1365C77.7473 73.4042 51.7301 60.2001 13.6816 61.2425C28.4493 57.7678 63.5877 56.6819 85.9998 80.1365Z" fill="white"/>
<path d="M85.9999 80.1365C79.9191 70.3638 56.4211 52.1214 11.0757 57.3335C29.9696 52.3385 71.406 49.9062 85.9999 80.1365Z" fill="white"/>
<path d="M7.81812 54.0759C29.7525 49.7324 76.0969 48.8637 85.9999 80.1365C85.1312 64.9344 68.2787 38.4395 7.81812 54.0759Z" fill="white"/>
<path d="M85.9999 80.1365C94.2525 73.4042 120.27 60.2001 158.318 61.2425C143.55 57.7678 108.412 56.6819 85.9999 80.1365Z" fill="white"/>
<path d="M85.9998 80.1365C92.0806 70.3638 115.579 52.1214 160.924 57.3335C142.03 52.3385 100.594 49.9062 85.9998 80.1365Z" fill="white"/>
<path d="M164.182 54.0759C142.247 49.7324 95.9029 48.8637 85.9998 80.1365C86.8685 64.9344 103.721 38.4395 164.182 54.0759Z" fill="white"/>
</svg>
